<?xml version="1.0" standalone="no"?>
<!DOCTYPE svg PUBLIC "-//W3C//DTD SVG 20010904//EN"
 "http://www.w3.org/TR/2001/REC-SVG-20010904/DTD/svg10.dtd">
<svg version="1.0" xmlns="http://www.w3.org/2000/svg"
 width="515.000000pt" height="468.000000pt" viewBox="0 0 515.000000 468.000000"
 preserveAspectRatio="xMidYMid meet">

<g transform="translate(0.000000,468.000000) scale(0.100000,-0.100000)"
fill="#000000" stroke="none">
<path d="M3304 3564 c-49 -31 -111 -71 -139 -87 -27 -17 -77 -47 -110 -67 -33
-21 -93 -57 -133 -81 -40 -24 -131 -81 -202 -126 -71 -46 -134 -83 -140 -83
-5 0 -10 -4 -10 -9 0 -5 -13 -14 -29 -21 -16 -6 -38 -20 -48 -30 -11 -10 -35
-26 -54 -35 -49 -25 -95 -62 -113 -91 -15 -22 -15 -27 4 -67 26 -52 38 -141
21 -161 -16 -19 -73 -29 -102 -17 -34 13 -72 47 -233 205 -77 76 -151 145
-164 154 -21 13 -24 13 -37 -4 -8 -10 -18 -30 -21 -44 -19 -71 -56 -130 -111
-177 -93 -78 -99 -84 -200 -185 -111 -113 -143 -156 -143 -195 0 -60 68 -159
174 -252 29 -26 29 -26 4 -109 l-13 -44 57 -53 c89 -84 129 -103 228 -110 96
-7 136 -20 150 -46 16 -28 12 -201 -4 -224 -7 -11 -19 -52 -26 -92 -15 -84
-17 -86 -150 -117 -94 -21 -120 -38 -78 -50 13 -3 415 -6 894 -6 714 0 873 2
889 13 23 18 14 23 -65 37 -91 16 -115 24 -115 36 0 20 39 66 196 227 l156
161 -5 385 -5 386 -31 30 c-56 53 -260 241 -295 272 l-33 29 22 85 c12 46 29
111 37 144 18 77 26 109 56 230 31 127 47 201 47 226 0 32 -32 22 -126 -37z
m-10 -163 c6 -9 -25 -164 -64 -321 -12 -47 -26 -107 -31 -135 -5 -27 -14 -66
-19 -85 -6 -19 -19 -75 -31 -125 -11 -49 -23 -98 -25 -107 -8 -28 18 -21 46
13 56 66 123 139 130 139 4 0 64 -57 134 -126 l128 -125 -8 -354 -7 -354 -209
-205 -208 -206 -253 1 c-364 1 -788 15 -818 27 -29 12 -42 36 -34 62 6 18 49
39 120 61 85 25 145 52 145 64 0 13 -91 55 -121 55 -25 0 -70 20 -97 44 -46
41 -25 85 106 225 l44 46 -67 3 c-60 3 -67 5 -75 28 -6 14 -10 39 -10 56 0 34
-20 98 -30 98 -15 0 -40 -40 -71 -115 -18 -44 -40 -87 -48 -95 -30 -30 -200
-11 -239 27 -7 7 -19 16 -26 20 -7 5 -16 18 -20 30 -10 31 23 46 82 38 32 -4
52 -2 63 7 22 17 39 72 39 123 0 54 -13 60 -160 75 -63 6 -126 16 -139 23 -29
14 -43 62 -35 117 14 95 125 239 234 305 41 25 72 55 102 97 24 34 49 63 56
66 25 8 252 -246 252 -283 0 -6 -14 -23 -31 -38 -18 -15 -29 -30 -26 -34 7 -6
118 13 152 27 38 15 145 40 172 40 22 0 34 -10 59 -48 50 -76 120 -204 211
-387 30 -60 61 -121 68 -135 42 -80 55 -136 55 -240 l0 -105 130 132 c152 155
165 184 65 148 -22 -8 -49 -15 -59 -15 -23 0 -56 27 -56 47 0 7 -3 13 -7 13
-5 0 -13 10 -19 23 -30 60 -60 112 -66 115 -5 2 -8 9 -8 15 0 7 -11 32 -24 57
-13 25 -43 83 -68 130 -61 116 -168 328 -184 365 -7 17 -22 52 -34 79 -12 28
-24 64 -27 81 -4 28 0 34 36 58 22 15 45 27 50 27 5 0 11 3 13 8 2 4 23 18 48
31 25 13 82 48 126 76 45 29 91 56 103 60 11 3 21 11 21 16 0 5 5 9 11 9 6 0
29 13 52 29 61 41 197 121 208 121 5 0 9 5 9 10 0 6 4 10 10 10 5 0 31 13 58
29 65 38 106 49 116 32z"/>
<path d="M1586 2544 c-11 -28 -6 -65 9 -70 24 -10 59 4 78 32 18 25 18 26 0
39 -25 20 -79 19 -87 -1z"/>
</g>
</svg>
