<?xml version="1.0" standalone="no"?>
<!DOCTYPE svg PUBLIC "-//W3C//DTD SVG 20010904//EN"
 "http://www.w3.org/TR/2001/REC-SVG-20010904/DTD/svg10.dtd">
<svg version="1.0" xmlns="http://www.w3.org/2000/svg"
 width="104.000000pt" height="95.000000pt" viewBox="0 0 104.000000 95.000000"
 preserveAspectRatio="xMidYMid meet">

<g transform="translate(0.000000,95.000000) scale(0.100000,-0.100000)"
fill="#000000" stroke="none">
<path d="M802 910 c-23 -17 -44 -30 -46 -30 -6 0 -306 -188 -322 -201 -11 -9
-11 -16 1 -40 22 -41 19 -58 -12 -65 -23 -6 -34 2 -99 70 -40 42 -77 76 -83
76 -6 0 -16 -18 -22 -41 -8 -25 -21 -44 -33 -49 -12 -5 -44 -32 -72 -62 -82
-87 -80 -81 -47 -132 15 -25 34 -45 41 -46 19 0 26 -28 11 -46 -12 -14 -9 -21
25 -50 30 -26 49 -34 77 -34 60 0 69 -7 69 -55 0 -24 -5 -47 -10 -50 -5 -3
-10 -20 -10 -36 0 -31 -4 -34 -62 -44 -21 -3 -38 -10 -38 -15 0 -6 136 -10
355 -10 230 0 355 4 355 10 0 6 -7 11 -15 11 -8 1 -19 3 -25 4 -5 1 -20 3 -32
4 -19 1 -10 13 55 79 l78 79 -1 149 -1 149 -71 65 -71 66 32 120 c32 124 37
154 24 154 -5 0 -27 -14 -51 -30z m-27 -217 c-19 -77 -35 -144 -35 -149 1 -5
16 9 35 31 l34 40 51 -50 50 -49 0 -136 0 -136 -84 -82 -84 -82 -213 2 c-207
3 -214 4 -217 23 -2 18 6 23 53 35 31 8 56 19 56 25 0 5 -22 14 -48 20 -61 13
-65 32 -17 85 l38 42 -29 -4 c-28 -3 -30 0 -33 32 -5 54 -16 54 -36 0 -17 -48
-19 -50 -56 -50 -40 0 -88 29 -77 47 3 5 19 8 35 5 26 -3 30 0 36 28 3 18 3
36 0 41 -3 5 -29 9 -58 9 -62 0 -77 13 -71 60 4 36 63 105 103 121 12 5 27 20
32 34 5 14 14 25 19 25 5 0 31 -25 57 -56 46 -54 47 -57 29 -70 -18 -14 -18
-14 2 -14 11 0 40 7 63 15 23 8 48 15 55 15 7 0 45 -63 84 -139 65 -128 71
-144 65 -183 l-6 -43 57 58 c60 60 66 76 21 56 -16 -8 -30 -9 -35 -3 -5 5 -47
84 -95 176 -80 155 -97 198 -78 198 4 0 79 45 167 100 133 83 161 97 163 82 2
-10 -13 -82 -33 -159z"/>
<path d="M147 523 c-12 -11 -7 -33 7 -33 7 0 19 6 25 14 9 11 8 15 -5 20 -19
7 -19 7 -27 -1z"/>
</g>
</svg>
